<svg xmlns="http://www.w3.org/2000/svg" xmlns:xlink="http://www.w3.org/1999/xlink" width="500" zoomAndPan="magnify" viewBox="0 0 375 374.999991" height="500" preserveAspectRatio="xMidYMid meet" version="1.0"><defs><g/><clipPath id="8f58b81a46"><rect x="0" width="193" y="0" height="90"/></clipPath><clipPath id="0af018b367"><rect x="0" width="195" y="0" height="102"/></clipPath><clipPath id="3223d2b55b"><path d="M 121.816406 165.101562 L 182.566406 165.101562 L 182.566406 232.601562 L 121.816406 232.601562 Z M 121.816406 165.101562 " clip-rule="nonzero"/></clipPath><clipPath id="70c88a017f"><rect x="0" width="63" y="0" height="200"/></clipPath></defs><rect x="-37.5" width="450" fill="#ffffff" y="-37.499999" height="449.999989" fill-opacity="1"/><rect x="-37.5" width="450" fill="#000000" y="-37.499999" height="449.999989" fill-opacity="1"/><g transform="matrix(1, 0, 0, 1, 67, 186)"><g clip-path="url(#8f58b81a46)"><g fill="#ffffff" fill-opacity="1"><g transform="translate(0.823357, 65.711465)"><g><path d="M 18.859375 1.28125 C 16.679688 1.28125 14.75 1.015625 13.0625 0.484375 C 11.382812 -0.046875 9.914062 -0.726562 8.65625 -1.5625 C 7.40625 -2.394531 6.351562 -3.289062 5.5 -4.25 C 4.644531 -5.207031 3.984375 -6.132812 3.515625 -7.03125 C 3.347656 -7.332031 3.175781 -7.628906 3 -7.921875 C 2.707031 -8.523438 2.5625 -9.082031 2.5625 -9.59375 C 2.5625 -10.394531 2.769531 -11.019531 3.1875 -11.46875 C 3.613281 -11.914062 4.148438 -12.140625 4.796875 -12.140625 C 5.609375 -12.140625 6.203125 -11.925781 6.578125 -11.5 C 6.960938 -11.070312 7.328125 -10.539062 7.671875 -9.90625 C 8.054688 -9.09375 8.578125 -8.289062 9.234375 -7.5 C 9.898438 -6.71875 10.6875 -6.003906 11.59375 -5.359375 C 12.507812 -4.722656 13.566406 -4.203125 14.765625 -3.796875 C 15.960938 -3.398438 17.328125 -3.203125 18.859375 -3.203125 C 20.609375 -3.203125 22.195312 -3.457031 23.625 -3.96875 C 25.050781 -4.476562 26.265625 -5.144531 27.265625 -5.96875 C 28.265625 -6.800781 29.03125 -7.757812 29.5625 -8.84375 C 30.09375 -9.9375 30.359375 -11.035156 30.359375 -12.140625 C 30.359375 -13.890625 29.695312 -15.285156 28.375 -16.328125 C 27.0625 -17.367188 25.398438 -18.253906 23.390625 -18.984375 C 21.390625 -19.710938 19.238281 -20.40625 16.9375 -21.0625 C 14.632812 -21.71875 12.484375 -22.546875 10.484375 -23.546875 C 8.484375 -24.554688 6.820312 -25.835938 5.5 -27.390625 C 4.175781 -28.941406 3.515625 -31 3.515625 -33.5625 C 3.515625 -35.21875 3.863281 -36.800781 4.5625 -38.3125 C 5.269531 -39.832031 6.285156 -41.164062 7.609375 -42.3125 C 8.929688 -43.46875 10.539062 -44.375 12.4375 -45.03125 C 14.332031 -45.695312 16.472656 -46.03125 18.859375 -46.03125 C 20.859375 -46.03125 22.632812 -45.78125 24.1875 -45.28125 C 25.75 -44.789062 27.125 -44.160156 28.3125 -43.390625 C 29.507812 -42.628906 30.507812 -41.800781 31.3125 -40.90625 C 32.125 -40.007812 32.765625 -39.160156 33.234375 -38.359375 L 33.6875 -37.453125 C 33.8125 -37.203125 33.925781 -36.914062 34.03125 -36.59375 C 34.144531 -36.269531 34.203125 -36.003906 34.203125 -35.796875 C 34.203125 -34.984375 33.988281 -34.351562 33.5625 -33.90625 C 33.132812 -33.457031 32.601562 -33.234375 31.96875 -33.234375 C 31.320312 -33.234375 30.742188 -33.507812 30.234375 -34.0625 C 29.722656 -34.625 29.234375 -35.304688 28.765625 -36.109375 C 28.378906 -36.753906 27.898438 -37.394531 27.328125 -38.03125 C 26.753906 -38.675781 26.0625 -39.265625 25.25 -39.796875 C 24.4375 -40.328125 23.507812 -40.75 22.46875 -41.0625 C 21.425781 -41.382812 20.222656 -41.546875 18.859375 -41.546875 C 17.234375 -41.546875 15.789062 -41.320312 14.53125 -40.875 C 13.28125 -40.425781 12.21875 -39.835938 11.34375 -39.109375 C 10.46875 -38.390625 9.796875 -37.539062 9.328125 -36.5625 C 8.859375 -35.582031 8.625 -34.582031 8.625 -33.5625 C 8.625 -31.8125 9.285156 -30.414062 10.609375 -29.375 C 11.929688 -28.332031 13.59375 -27.445312 15.59375 -26.71875 C 17.59375 -25.988281 19.742188 -25.296875 22.046875 -24.640625 C 24.347656 -23.984375 26.5 -23.148438 28.5 -22.140625 C 30.507812 -21.140625 32.175781 -19.863281 33.5 -18.3125 C 34.820312 -16.757812 35.484375 -14.703125 35.484375 -12.140625 C 35.484375 -10.398438 35.097656 -8.71875 34.328125 -7.09375 C 33.554688 -5.476562 32.445312 -4.050781 31 -2.8125 C 29.550781 -1.570312 27.800781 -0.582031 25.75 0.15625 C 23.707031 0.90625 21.410156 1.28125 18.859375 1.28125 Z M 18.859375 1.28125 "/></g></g></g><g fill="#ffffff" fill-opacity="1"><g transform="translate(35.145739, 65.711465)"><g><path d="M 22.046875 1.28125 C 19.578125 1.28125 17.304688 0.863281 15.234375 0.03125 C 13.171875 -0.800781 11.382812 -1.929688 9.875 -3.359375 C 8.363281 -4.785156 7.191406 -6.46875 6.359375 -8.40625 C 5.523438 -10.34375 5.109375 -12.441406 5.109375 -14.703125 L 5.109375 -42.828125 C 5.109375 -43.460938 5.332031 -44.046875 5.78125 -44.578125 C 6.226562 -45.117188 6.859375 -45.390625 7.671875 -45.390625 C 8.484375 -45.390625 9.113281 -45.117188 9.5625 -44.578125 C 10.007812 -44.046875 10.234375 -43.460938 10.234375 -42.828125 L 10.234375 -14.703125 C 10.234375 -13.078125 10.53125 -11.570312 11.125 -10.1875 C 11.71875 -8.8125 12.546875 -7.597656 13.609375 -6.546875 C 14.679688 -5.503906 15.941406 -4.6875 17.390625 -4.09375 C 18.835938 -3.5 20.390625 -3.203125 22.046875 -3.203125 C 23.710938 -3.203125 25.269531 -3.5 26.71875 -4.09375 C 28.164062 -4.6875 29.421875 -5.503906 30.484375 -6.546875 C 31.554688 -7.597656 32.390625 -8.8125 32.984375 -10.1875 C 33.578125 -11.570312 33.875 -13.078125 33.875 -14.703125 L 33.875 -42.828125 C 33.875 -43.460938 34.097656 -44.046875 34.546875 -44.578125 C 34.992188 -45.117188 35.625 -45.390625 36.4375 -45.390625 C 37.25 -45.390625 37.878906 -45.117188 38.328125 -44.578125 C 38.773438 -44.046875 39 -43.460938 39 -42.828125 L 39 -14.703125 C 39 -12.441406 38.582031 -10.34375 37.75 -8.40625 C 36.914062 -6.46875 35.742188 -4.785156 34.234375 -3.359375 C 32.722656 -1.929688 30.929688 -0.800781 28.859375 0.03125 C 26.796875 0.863281 24.523438 1.28125 22.046875 1.28125 Z M 22.046875 1.28125 "/></g></g></g><g fill="#ffffff" fill-opacity="1"><g transform="translate(74.581358, 65.711465)"><g><path d="M 8.3125 0.640625 C 7.5 0.640625 6.867188 0.375 6.421875 -0.15625 C 5.972656 -0.6875 5.75 -1.273438 5.75 -1.921875 L 5.75 -42.515625 C 5.75 -43.316406 6.023438 -43.992188 6.578125 -44.546875 C 7.140625 -45.109375 7.820312 -45.390625 8.625 -45.390625 C 9.4375 -45.390625 10.085938 -45.175781 10.578125 -44.75 C 11.066406 -44.320312 11.484375 -43.785156 11.828125 -43.140625 L 28.578125 -11.5 L 28.953125 -11.5 L 45.703125 -43.140625 C 46.046875 -43.785156 46.460938 -44.320312 46.953125 -44.75 C 47.441406 -45.175781 48.09375 -45.390625 48.90625 -45.390625 C 49.707031 -45.390625 50.382812 -45.109375 50.9375 -44.546875 C 51.5 -43.992188 51.78125 -43.316406 51.78125 -42.515625 L 51.78125 -1.921875 C 51.78125 -1.273438 51.554688 -0.6875 51.109375 -0.15625 C 50.660156 0.375 50.03125 0.640625 49.21875 0.640625 C 48.40625 0.640625 47.773438 0.375 47.328125 -0.15625 C 46.878906 -0.6875 46.65625 -1.273438 46.65625 -1.921875 L 46.65625 -33.875 L 46.34375 -33.875 L 32.28125 -7.34375 C 31.851562 -6.539062 31.363281 -5.914062 30.8125 -5.46875 C 30.257812 -5.019531 29.578125 -4.796875 28.765625 -4.796875 C 27.953125 -4.796875 27.269531 -5.019531 26.71875 -5.46875 C 26.164062 -5.914062 25.675781 -6.539062 25.25 -7.34375 L 11.1875 -33.875 L 10.859375 -33.875 L 10.859375 -1.921875 C 10.859375 -1.273438 10.632812 -0.6875 10.1875 -0.15625 C 9.75 0.375 9.125 0.640625 8.3125 0.640625 Z M 8.3125 0.640625 "/></g></g></g><g fill="#ffffff" fill-opacity="1"><g transform="translate(127.439218, 65.711465)"><g><path d="M 8.3125 0.640625 C 7.5 0.640625 6.867188 0.375 6.421875 -0.15625 C 5.972656 -0.6875 5.75 -1.273438 5.75 -1.921875 L 5.75 -42.515625 C 5.75 -43.316406 6.023438 -43.992188 6.578125 -44.546875 C 7.140625 -45.109375 7.820312 -45.390625 8.625 -45.390625 C 9.4375 -45.390625 10.085938 -45.175781 10.578125 -44.75 C 11.066406 -44.320312 11.484375 -43.785156 11.828125 -43.140625 L 28.578125 -11.5 L 28.953125 -11.5 L 45.703125 -43.140625 C 46.046875 -43.785156 46.460938 -44.320312 46.953125 -44.75 C 47.441406 -45.175781 48.09375 -45.390625 48.90625 -45.390625 C 49.707031 -45.390625 50.382812 -45.109375 50.9375 -44.546875 C 51.5 -43.992188 51.78125 -43.316406 51.78125 -42.515625 L 51.78125 -1.921875 C 51.78125 -1.273438 51.554688 -0.6875 51.109375 -0.15625 C 50.660156 0.375 50.03125 0.640625 49.21875 0.640625 C 48.40625 0.640625 47.773438 0.375 47.328125 -0.15625 C 46.878906 -0.6875 46.65625 -1.273438 46.65625 -1.921875 L 46.65625 -33.875 L 46.34375 -33.875 L 32.28125 -7.34375 C 31.851562 -6.539062 31.363281 -5.914062 30.8125 -5.46875 C 30.257812 -5.019531 29.578125 -4.796875 28.765625 -4.796875 C 27.953125 -4.796875 27.269531 -5.019531 26.71875 -5.46875 C 26.164062 -5.914062 25.675781 -6.539062 25.25 -7.34375 L 11.1875 -33.875 L 10.859375 -33.875 L 10.859375 -1.921875 C 10.859375 -1.273438 10.632812 -0.6875 10.1875 -0.15625 C 9.75 0.375 9.125 0.640625 8.3125 0.640625 Z M 8.3125 0.640625 "/></g></g></g><g fill="#ffffff" fill-opacity="1"><g transform="translate(180.297068, 65.711465)"><g><path d="M 8.3125 0.640625 C 7.5 0.640625 6.867188 0.375 6.421875 -0.15625 C 5.972656 -0.6875 5.75 -1.273438 5.75 -1.921875 L 5.75 -42.828125 C 5.75 -43.460938 5.972656 -44.046875 6.421875 -44.578125 C 6.867188 -45.117188 7.5 -45.390625 8.3125 -45.390625 C 9.125 -45.390625 9.75 -45.117188 10.1875 -44.578125 C 10.632812 -44.046875 10.859375 -43.460938 10.859375 -42.828125 L 10.859375 -1.921875 C 10.859375 -1.273438 10.632812 -0.6875 10.1875 -0.15625 C 9.75 0.375 9.125 0.640625 8.3125 0.640625 Z M 8.3125 0.640625 "/></g></g></g></g></g><g transform="matrix(1, 0, 0, 1, 59, 121)"><g clip-path="url(#0af018b367)"><g fill="#ffffff" fill-opacity="1"><g transform="translate(0.550894, 80.313423)"><g><path d="M 28.921875 -54.3125 C 28.921875 -53.507812 28.894531 -52.785156 28.84375 -52.140625 C 28.789062 -51.503906 28.765625 -50.785156 28.765625 -49.984375 C 28.765625 -48.867188 28.773438 -47.867188 28.796875 -46.984375 C 28.828125 -46.097656 28.84375 -45.125 28.84375 -44.0625 C 28.84375 -43.894531 28.8125 -43.546875 28.75 -43.015625 C 28.695312 -42.484375 28.484375 -41.988281 28.109375 -41.53125 C 27.742188 -41.082031 27.109375 -40.859375 26.203125 -40.859375 C 25.660156 -40.859375 25.1875 -40.9375 24.78125 -41.09375 C 24.382812 -41.257812 23.921875 -41.3125 23.390625 -41.25 C 23.234375 -41.25 22.859375 -41.140625 22.265625 -40.921875 C 21.679688 -40.710938 21.082031 -40.488281 20.46875 -40.25 C 19.851562 -40.007812 19.46875 -39.8125 19.3125 -39.65625 C 18.03125 -38.632812 17.117188 -37.039062 16.578125 -34.875 C 16.046875 -32.71875 15.804688 -30.195312 15.859375 -27.3125 C 15.859375 -22.5625 16.976562 -19.222656 19.21875 -17.296875 C 19.332031 -17.242188 19.679688 -17.003906 20.265625 -16.578125 C 20.859375 -16.148438 21.550781 -15.75 22.34375 -15.375 C 23.144531 -15 23.867188 -14.8125 24.515625 -14.8125 C 24.941406 -14.8125 25.3125 -14.863281 25.625 -14.96875 C 25.945312 -15.082031 26.296875 -15.140625 26.671875 -15.140625 C 26.785156 -15.140625 27.015625 -15.082031 27.359375 -14.96875 C 27.703125 -14.863281 28.035156 -14.597656 28.359375 -14.171875 C 28.628906 -13.804688 28.765625 -13.164062 28.765625 -12.25 C 28.765625 -11.507812 28.734375 -10.84375 28.671875 -10.25 C 28.617188 -9.664062 28.59375 -9 28.59375 -8.25 C 28.59375 -7.238281 28.617188 -6.332031 28.671875 -5.53125 C 28.734375 -4.726562 28.765625 -3.816406 28.765625 -2.796875 C 28.765625 -1.679688 28.535156 -0.894531 28.078125 -0.4375 C 27.617188 0.0078125 27.097656 0.285156 26.515625 0.390625 C 25.929688 0.503906 25.476562 0.5625 25.15625 0.5625 C 24.988281 0.5625 24.398438 0.535156 23.390625 0.484375 C 22.378906 0.429688 21.378906 0.375 20.390625 0.3125 C 19.398438 0.257812 18.796875 0.234375 18.578125 0.234375 C 18.523438 0.179688 18.097656 0.078125 17.296875 -0.078125 C 16.503906 -0.242188 15.554688 -0.507812 14.453125 -0.875 C 13.359375 -1.25 12.382812 -1.734375 11.53125 -2.328125 C 10.351562 -3.066406 9.363281 -3.90625 8.5625 -4.84375 C 7.769531 -5.78125 7.238281 -6.410156 6.96875 -6.734375 C 6.8125 -6.941406 6.503906 -7.335938 6.046875 -7.921875 C 5.597656 -8.515625 5.289062 -8.914062 5.125 -9.125 C 5.070312 -9.238281 4.804688 -9.757812 4.328125 -10.6875 C 3.847656 -11.625 3.335938 -12.734375 2.796875 -14.015625 C 2.265625 -15.296875 1.894531 -16.445312 1.6875 -17.46875 C 1.519531 -18.207031 1.410156 -19.140625 1.359375 -20.265625 C 1.304688 -21.390625 1.253906 -22.328125 1.203125 -23.078125 C 1.148438 -24.296875 1.066406 -25.398438 0.953125 -26.390625 C 0.847656 -27.378906 0.796875 -28.488281 0.796875 -29.71875 C 0.796875 -32.757812 1.0625 -35.585938 1.59375 -38.203125 C 2.132812 -40.828125 2.566406 -42.617188 2.890625 -43.578125 C 2.992188 -43.847656 3.234375 -44.421875 3.609375 -45.296875 C 3.984375 -46.179688 4.53125 -47.171875 5.25 -48.265625 C 5.96875 -49.359375 6.890625 -50.382812 8.015625 -51.34375 C 8.117188 -51.457031 8.453125 -51.695312 9.015625 -52.0625 C 9.578125 -52.4375 10.203125 -52.863281 10.890625 -53.34375 C 11.585938 -53.832031 12.226562 -54.265625 12.8125 -54.640625 C 13.40625 -55.015625 13.726562 -55.226562 13.78125 -55.28125 C 15.007812 -55.96875 16.597656 -56.472656 18.546875 -56.796875 C 20.492188 -57.117188 22.109375 -57.28125 23.390625 -57.28125 L 23.953125 -57.28125 C 24.585938 -57.28125 25.289062 -57.265625 26.0625 -57.234375 C 26.84375 -57.210938 27.515625 -57 28.078125 -56.59375 C 28.640625 -56.195312 28.921875 -55.4375 28.921875 -54.3125 Z M 28.921875 -54.3125 "/></g></g></g><g fill="#ffffff" fill-opacity="1"><g transform="translate(29.872723, 80.313423)"><g><path d="M 39.171875 -33 C 39.171875 -29.320312 39.179688 -26.304688 39.203125 -23.953125 C 39.234375 -21.597656 39.15625 -19.550781 38.96875 -17.8125 C 38.78125 -16.082031 38.394531 -14.226562 37.8125 -12.25 C 37.8125 -12.09375 37.675781 -11.453125 37.40625 -10.328125 C 37.144531 -9.210938 36.773438 -8.171875 36.296875 -7.203125 C 35.753906 -6.085938 35.003906 -4.992188 34.046875 -3.921875 C 33.085938 -2.859375 32.046875 -1.976562 30.921875 -1.28125 C 30.648438 -1.175781 30.300781 -1.039062 29.875 -0.875 C 29.445312 -0.71875 28.941406 -0.503906 28.359375 -0.234375 C 27.023438 0.242188 25.863281 0.546875 24.875 0.671875 C 23.882812 0.804688 22.722656 0.875 21.390625 0.875 C 19.835938 0.875 18.070312 0.710938 16.09375 0.390625 C 14.125 0.078125 12.21875 -0.546875 10.375 -1.484375 C 8.53125 -2.421875 6.96875 -3.796875 5.6875 -5.609375 C 5.257812 -6.191406 4.84375 -6.988281 4.4375 -8 C 4.039062 -9.019531 3.679688 -10.050781 3.359375 -11.09375 C 3.046875 -12.132812 2.832031 -12.921875 2.71875 -13.453125 C 2.613281 -13.992188 2.507812 -14.8125 2.40625 -15.90625 C 2.300781 -17 2.21875 -18.101562 2.15625 -19.21875 C 2.101562 -20.34375 2.078125 -21.144531 2.078125 -21.625 C 2.078125 -22.695312 2.101562 -23.671875 2.15625 -24.546875 C 2.21875 -25.429688 2.21875 -26.410156 2.15625 -27.484375 C 2.15625 -28.335938 2.140625 -29.097656 2.109375 -29.765625 C 2.085938 -30.429688 2.078125 -31.164062 2.078125 -31.96875 C 2.078125 -35.757812 2.210938 -39.015625 2.484375 -41.734375 C 2.753906 -44.460938 3.367188 -46.8125 4.328125 -48.78125 C 5.285156 -50.757812 6.753906 -52.523438 8.734375 -54.078125 C 9.796875 -54.878906 10.820312 -55.519531 11.8125 -56 C 12.800781 -56.476562 13.9375 -56.8125 15.21875 -57 C 16.5 -57.1875 18.128906 -57.28125 20.109375 -57.28125 L 20.59375 -57.28125 C 21.976562 -57.28125 23.378906 -57.171875 24.796875 -56.953125 C 26.210938 -56.742188 27.535156 -56.34375 28.765625 -55.75 C 29.242188 -55.539062 29.910156 -55.15625 30.765625 -54.59375 C 31.617188 -54.03125 32.445312 -53.425781 33.25 -52.78125 C 34.050781 -52.144531 34.609375 -51.640625 34.921875 -51.265625 C 36.421875 -49.609375 37.503906 -47.21875 38.171875 -44.09375 C 38.835938 -40.96875 39.171875 -37.269531 39.171875 -33 Z M 24.515625 -27.234375 C 24.515625 -27.929688 24.5 -28.546875 24.46875 -29.078125 C 24.445312 -29.609375 24.4375 -30.222656 24.4375 -30.921875 C 24.382812 -31.617188 24.382812 -32.257812 24.4375 -32.84375 C 24.488281 -33.425781 24.515625 -34.066406 24.515625 -34.765625 C 24.515625 -35.191406 24.488281 -35.875 24.4375 -36.8125 C 24.382812 -37.75 24.289062 -38.707031 24.15625 -39.6875 C 24.019531 -40.675781 23.84375 -41.359375 23.625 -41.734375 C 23.363281 -42.210938 23.019531 -42.664062 22.59375 -43.09375 C 22.164062 -43.519531 21.5 -43.734375 20.59375 -43.734375 C 20.375 -43.734375 20.210938 -43.707031 20.109375 -43.65625 C 19.835938 -43.65625 19.582031 -43.601562 19.34375 -43.5 C 19.101562 -43.394531 18.847656 -43.285156 18.578125 -43.171875 C 17.835938 -42.640625 17.332031 -41.90625 17.0625 -40.96875 C 16.789062 -40.039062 16.65625 -38.878906 16.65625 -37.484375 C 16.65625 -36.421875 16.679688 -35.4375 16.734375 -34.53125 C 16.796875 -33.625 16.828125 -32.632812 16.828125 -31.5625 C 16.828125 -29.425781 16.785156 -27.503906 16.703125 -25.796875 C 16.617188 -24.085938 16.578125 -22.164062 16.578125 -20.03125 C 16.578125 -19.382812 16.601562 -18.460938 16.65625 -17.265625 C 16.71875 -16.066406 17.015625 -14.984375 17.546875 -14.015625 C 18.078125 -13.054688 19.007812 -12.578125 20.34375 -12.578125 C 21.570312 -12.578125 22.453125 -12.894531 22.984375 -13.53125 C 23.523438 -14.175781 23.859375 -14.9375 23.984375 -15.8125 C 24.117188 -16.695312 24.1875 -17.488281 24.1875 -18.1875 C 24.1875 -18.875 24.171875 -19.5 24.140625 -20.0625 C 24.117188 -20.625 24.132812 -21.253906 24.1875 -21.953125 C 24.238281 -22.910156 24.304688 -23.773438 24.390625 -24.546875 C 24.472656 -25.328125 24.515625 -26.222656 24.515625 -27.234375 Z M 24.515625 -27.234375 "/></g></g></g><g fill="#ffffff" fill-opacity="1"><g transform="translate(70.891251, 80.313423)"><g><path d="M 39.09375 -3.4375 C 39.09375 -2.101562 38.820312 -1.195312 38.28125 -0.71875 C 37.75 -0.238281 37.113281 0 36.375 0 C 35.675781 0 35.054688 -0.0234375 34.515625 -0.078125 C 33.984375 -0.128906 33.347656 -0.15625 32.609375 -0.15625 C 31.640625 -0.15625 30.753906 -0.113281 29.953125 -0.03125 C 29.160156 0.0390625 28.253906 0.078125 27.234375 0.078125 C 26.378906 0.078125 25.765625 -0.117188 25.390625 -0.515625 C 25.015625 -0.921875 24.785156 -1.363281 24.703125 -1.84375 C 24.628906 -2.320312 24.59375 -2.671875 24.59375 -2.890625 C 24.59375 -3.523438 24.628906 -4.097656 24.703125 -4.609375 C 24.785156 -5.117188 24.828125 -5.664062 24.828125 -6.25 C 24.828125 -6.675781 24.8125 -7.035156 24.78125 -7.328125 C 24.757812 -7.617188 24.75 -7.953125 24.75 -8.328125 C 24.75 -9.878906 24.789062 -11.269531 24.875 -12.5 C 24.957031 -13.726562 25 -15.085938 25 -16.578125 C 25 -18.179688 24.796875 -19.316406 24.390625 -19.984375 C 23.992188 -20.648438 23.460938 -21.050781 22.796875 -21.1875 C 22.128906 -21.320312 21.367188 -21.390625 20.515625 -21.390625 C 19.816406 -21.390625 19.28125 -21.304688 18.90625 -21.140625 C 18.53125 -20.984375 18.207031 -20.691406 17.9375 -20.265625 C 17.726562 -20.054688 17.554688 -19.550781 17.421875 -18.75 C 17.285156 -17.945312 17.191406 -17.144531 17.140625 -16.34375 C 17.085938 -15.539062 17.0625 -15.003906 17.0625 -14.734375 C 17.0625 -13.929688 17.085938 -13.128906 17.140625 -12.328125 C 17.191406 -11.535156 17.21875 -10.710938 17.21875 -9.859375 C 17.21875 -9.003906 17.203125 -8.238281 17.171875 -7.5625 C 17.148438 -6.894531 17.140625 -6.109375 17.140625 -5.203125 C 17.140625 -4.671875 17.148438 -4.191406 17.171875 -3.765625 C 17.203125 -3.335938 17.21875 -2.859375 17.21875 -2.328125 C 17.21875 -1.304688 16.9375 -0.632812 16.375 -0.3125 C 15.820312 0 15.332031 0.15625 14.90625 0.15625 C 14.050781 0.15625 13.285156 0.113281 12.609375 0.03125 C 11.941406 -0.0390625 11.179688 -0.078125 10.328125 -0.078125 C 9.796875 -0.078125 9.328125 -0.0625 8.921875 -0.03125 C 8.523438 -0.0078125 8.0625 0.0234375 7.53125 0.078125 C 7.207031 0.078125 6.910156 0.101562 6.640625 0.15625 C 6.378906 0.207031 6.085938 0.234375 5.765625 0.234375 C 4.804688 0.234375 4.097656 0.0195312 3.640625 -0.40625 C 3.191406 -0.832031 2.910156 -1.296875 2.796875 -1.796875 C 2.691406 -2.304688 2.640625 -2.722656 2.640625 -3.046875 C 2.640625 -4.109375 2.707031 -5.082031 2.84375 -5.96875 C 2.976562 -6.851562 3.046875 -7.851562 3.046875 -8.96875 L 3.046875 -9.21875 C 3.046875 -10.445312 3.054688 -11.550781 3.078125 -12.53125 C 3.109375 -13.519531 3.125 -14.601562 3.125 -15.78125 C 3.125 -17.539062 3.082031 -19.128906 3 -20.546875 C 2.925781 -21.960938 2.890625 -23.550781 2.890625 -25.3125 C 2.890625 -26.757812 2.941406 -28.066406 3.046875 -29.234375 C 3.148438 -30.410156 3.203125 -31.75 3.203125 -33.25 C 3.203125 -34.050781 3.175781 -34.769531 3.125 -35.40625 C 3.070312 -36.050781 3.019531 -36.773438 2.96875 -37.578125 C 2.914062 -38.640625 2.890625 -39.609375 2.890625 -40.484375 C 2.890625 -41.367188 2.890625 -42.375 2.890625 -43.5 C 2.890625 -44.457031 2.914062 -45.320312 2.96875 -46.09375 C 3.019531 -46.875 3.046875 -47.742188 3.046875 -48.703125 C 3.046875 -49.609375 2.988281 -50.4375 2.875 -51.1875 C 2.769531 -51.9375 2.71875 -52.765625 2.71875 -53.671875 C 2.71875 -54.148438 2.878906 -54.738281 3.203125 -55.4375 C 3.523438 -56.132812 4.273438 -56.484375 5.453125 -56.484375 C 6.253906 -56.484375 6.988281 -56.453125 7.65625 -56.390625 C 8.320312 -56.335938 9.082031 -56.3125 9.9375 -56.3125 C 10.738281 -56.3125 11.457031 -56.351562 12.09375 -56.4375 C 12.738281 -56.519531 13.460938 -56.5625 14.265625 -56.5625 C 15.648438 -56.5625 16.515625 -56.265625 16.859375 -55.671875 C 17.210938 -55.085938 17.390625 -54.445312 17.390625 -53.75 C 17.390625 -52.894531 17.320312 -52.144531 17.1875 -51.5 C 17.050781 -50.863281 16.984375 -50.117188 16.984375 -49.265625 C 16.984375 -48.359375 17.007812 -47.53125 17.0625 -46.78125 C 17.113281 -46.03125 17.140625 -45.203125 17.140625 -44.296875 C 17.140625 -43.285156 17.125 -42.390625 17.09375 -41.609375 C 17.070312 -40.835938 17.0625 -39.945312 17.0625 -38.9375 L 17.0625 -38.6875 C 17.0625 -37.195312 17.40625 -36.300781 18.09375 -36 C 18.789062 -35.707031 19.726562 -35.5625 20.90625 -35.5625 C 21.863281 -35.5625 22.539062 -35.65625 22.9375 -35.84375 C 23.34375 -36.03125 23.734375 -36.394531 24.109375 -36.9375 C 24.210938 -37.09375 24.289062 -37.539062 24.34375 -38.28125 C 24.40625 -39.03125 24.460938 -39.78125 24.515625 -40.53125 C 24.566406 -41.28125 24.59375 -41.734375 24.59375 -41.890625 C 24.59375 -42.804688 24.550781 -43.625 24.46875 -44.34375 C 24.394531 -45.0625 24.359375 -45.875 24.359375 -46.78125 C 24.359375 -47.257812 24.367188 -47.753906 24.390625 -48.265625 C 24.421875 -48.773438 24.4375 -49.269531 24.4375 -49.75 C 24.4375 -50.5 24.394531 -51.164062 24.3125 -51.75 C 24.226562 -52.332031 24.1875 -52.972656 24.1875 -53.671875 C 24.1875 -55.003906 24.5625 -55.816406 25.3125 -56.109375 C 26.0625 -56.410156 26.675781 -56.5625 27.15625 -56.5625 C 28.0625 -56.5625 28.863281 -56.519531 29.5625 -56.4375 C 30.257812 -56.351562 31.0625 -56.3125 31.96875 -56.3125 C 32.707031 -56.3125 33.359375 -56.351562 33.921875 -56.4375 C 34.484375 -56.519531 35.113281 -56.5625 35.8125 -56.5625 C 36.988281 -56.5625 37.789062 -56.316406 38.21875 -55.828125 C 38.644531 -55.347656 38.882812 -54.816406 38.9375 -54.234375 C 38.988281 -53.648438 39.015625 -53.222656 39.015625 -52.953125 C 39.015625 -51.453125 38.945312 -50.070312 38.8125 -48.8125 C 38.675781 -47.5625 38.609375 -46.164062 38.609375 -44.625 C 38.609375 -44.195312 38.617188 -43.804688 38.640625 -43.453125 C 38.671875 -43.109375 38.6875 -42.722656 38.6875 -42.296875 C 38.6875 -41.546875 38.660156 -40.863281 38.609375 -40.25 C 38.554688 -39.632812 38.53125 -38.957031 38.53125 -38.21875 C 38.53125 -36.9375 38.539062 -35.785156 38.5625 -34.765625 C 38.59375 -33.753906 38.609375 -32.609375 38.609375 -31.328125 C 38.609375 -29.773438 38.582031 -28.367188 38.53125 -27.109375 C 38.476562 -25.859375 38.453125 -24.457031 38.453125 -22.90625 C 38.453125 -21.039062 38.519531 -19.375 38.65625 -17.90625 C 38.789062 -16.4375 38.859375 -14.765625 38.859375 -12.890625 C 38.859375 -11.984375 38.84375 -11.15625 38.8125 -10.40625 C 38.78125 -9.664062 38.765625 -8.84375 38.765625 -7.9375 C 38.765625 -7.132812 38.816406 -6.394531 38.921875 -5.71875 C 39.035156 -5.050781 39.09375 -4.289062 39.09375 -3.4375 Z M 39.09375 -3.4375 "/></g></g></g><g fill="#ffffff" fill-opacity="1"><g transform="translate(111.90978, 80.313423)"><g><path d="M 39.171875 -33 C 39.171875 -29.320312 39.179688 -26.304688 39.203125 -23.953125 C 39.234375 -21.597656 39.15625 -19.550781 38.96875 -17.8125 C 38.78125 -16.082031 38.394531 -14.226562 37.8125 -12.25 C 37.8125 -12.09375 37.675781 -11.453125 37.40625 -10.328125 C 37.144531 -9.210938 36.773438 -8.171875 36.296875 -7.203125 C 35.753906 -6.085938 35.003906 -4.992188 34.046875 -3.921875 C 33.085938 -2.859375 32.046875 -1.976562 30.921875 -1.28125 C 30.648438 -1.175781 30.300781 -1.039062 29.875 -0.875 C 29.445312 -0.71875 28.941406 -0.503906 28.359375 -0.234375 C 27.023438 0.242188 25.863281 0.546875 24.875 0.671875 C 23.882812 0.804688 22.722656 0.875 21.390625 0.875 C 19.835938 0.875 18.070312 0.710938 16.09375 0.390625 C 14.125 0.078125 12.21875 -0.546875 10.375 -1.484375 C 8.53125 -2.421875 6.96875 -3.796875 5.6875 -5.609375 C 5.257812 -6.191406 4.84375 -6.988281 4.4375 -8 C 4.039062 -9.019531 3.679688 -10.050781 3.359375 -11.09375 C 3.046875 -12.132812 2.832031 -12.921875 2.71875 -13.453125 C 2.613281 -13.992188 2.507812 -14.8125 2.40625 -15.90625 C 2.300781 -17 2.21875 -18.101562 2.15625 -19.21875 C 2.101562 -20.34375 2.078125 -21.144531 2.078125 -21.625 C 2.078125 -22.695312 2.101562 -23.671875 2.15625 -24.546875 C 2.21875 -25.429688 2.21875 -26.410156 2.15625 -27.484375 C 2.15625 -28.335938 2.140625 -29.097656 2.109375 -29.765625 C 2.085938 -30.429688 2.078125 -31.164062 2.078125 -31.96875 C 2.078125 -35.757812 2.210938 -39.015625 2.484375 -41.734375 C 2.753906 -44.460938 3.367188 -46.8125 4.328125 -48.78125 C 5.285156 -50.757812 6.753906 -52.523438 8.734375 -54.078125 C 9.796875 -54.878906 10.820312 -55.519531 11.8125 -56 C 12.800781 -56.476562 13.9375 -56.8125 15.21875 -57 C 16.5 -57.1875 18.128906 -57.28125 20.109375 -57.28125 L 20.59375 -57.28125 C 21.976562 -57.28125 23.378906 -57.171875 24.796875 -56.953125 C 26.210938 -56.742188 27.535156 -56.34375 28.765625 -55.75 C 29.242188 -55.539062 29.910156 -55.15625 30.765625 -54.59375 C 31.617188 -54.03125 32.445312 -53.425781 33.25 -52.78125 C 34.050781 -52.144531 34.609375 -51.640625 34.921875 -51.265625 C 36.421875 -49.609375 37.503906 -47.21875 38.171875 -44.09375 C 38.835938 -40.96875 39.171875 -37.269531 39.171875 -33 Z M 24.515625 -27.234375 C 24.515625 -27.929688 24.5 -28.546875 24.46875 -29.078125 C 24.445312 -29.609375 24.4375 -30.222656 24.4375 -30.921875 C 24.382812 -31.617188 24.382812 -32.257812 24.4375 -32.84375 C 24.488281 -33.425781 24.515625 -34.066406 24.515625 -34.765625 C 24.515625 -35.191406 24.488281 -35.875 24.4375 -36.8125 C 24.382812 -37.75 24.289062 -38.707031 24.15625 -39.6875 C 24.019531 -40.675781 23.84375 -41.359375 23.625 -41.734375 C 23.363281 -42.210938 23.019531 -42.664062 22.59375 -43.09375 C 22.164062 -43.519531 21.5 -43.734375 20.59375 -43.734375 C 20.375 -43.734375 20.210938 -43.707031 20.109375 -43.65625 C 19.835938 -43.65625 19.582031 -43.601562 19.34375 -43.5 C 19.101562 -43.394531 18.847656 -43.285156 18.578125 -43.171875 C 17.835938 -42.640625 17.332031 -41.90625 17.0625 -40.96875 C 16.789062 -40.039062 16.65625 -38.878906 16.65625 -37.484375 C 16.65625 -36.421875 16.679688 -35.4375 16.734375 -34.53125 C 16.796875 -33.625 16.828125 -32.632812 16.828125 -31.5625 C 16.828125 -29.425781 16.785156 -27.503906 16.703125 -25.796875 C 16.617188 -24.085938 16.578125 -22.164062 16.578125 -20.03125 C 16.578125 -19.382812 16.601562 -18.460938 16.65625 -17.265625 C 16.71875 -16.066406 17.015625 -14.984375 17.546875 -14.015625 C 18.078125 -13.054688 19.007812 -12.578125 20.34375 -12.578125 C 21.570312 -12.578125 22.453125 -12.894531 22.984375 -13.53125 C 23.523438 -14.175781 23.859375 -14.9375 23.984375 -15.8125 C 24.117188 -16.695312 24.1875 -17.488281 24.1875 -18.1875 C 24.1875 -18.875 24.171875 -19.5 24.140625 -20.0625 C 24.117188 -20.625 24.132812 -21.253906 24.1875 -21.953125 C 24.238281 -22.910156 24.304688 -23.773438 24.390625 -24.546875 C 24.472656 -25.328125 24.515625 -26.222656 24.515625 -27.234375 Z M 24.515625 -27.234375 "/></g></g></g><g fill="#ffffff" fill-opacity="1"><g transform="translate(152.928308, 80.313423)"><g><path d="M 40.609375 -1.921875 C 40.609375 -1.066406 40.273438 -0.570312 39.609375 -0.4375 C 38.941406 -0.300781 38.554688 -0.234375 38.453125 -0.234375 L 38.125 -0.234375 C 37.4375 -0.234375 36.835938 -0.257812 36.328125 -0.3125 C 35.816406 -0.375 35.21875 -0.40625 34.53125 -0.40625 C 33.726562 -0.40625 33.019531 -0.40625 32.40625 -0.40625 C 31.789062 -0.40625 31.109375 -0.378906 30.359375 -0.328125 C 29.929688 -0.328125 29.53125 -0.296875 29.15625 -0.234375 C 28.78125 -0.179688 28.378906 -0.15625 27.953125 -0.15625 C 26.671875 -0.15625 25.859375 -0.566406 25.515625 -1.390625 C 25.171875 -2.222656 24.785156 -3.09375 24.359375 -4 C 23.984375 -4.96875 23.582031 -5.8125 23.15625 -6.53125 C 22.726562 -7.25 22.300781 -8.0625 21.875 -8.96875 C 21.601562 -9.613281 21.375 -10.1875 21.1875 -10.6875 C 21 -11.195312 20.742188 -11.773438 20.421875 -12.421875 C 20.109375 -13.054688 19.816406 -13.613281 19.546875 -14.09375 C 19.273438 -14.570312 18.925781 -14.8125 18.5 -14.8125 C 17.914062 -14.8125 17.597656 -14.53125 17.546875 -13.96875 C 17.492188 -13.414062 17.46875 -13.03125 17.46875 -12.8125 C 17.46875 -12.007812 17.476562 -11.285156 17.5 -10.640625 C 17.53125 -10.003906 17.546875 -9.316406 17.546875 -8.578125 C 17.546875 -7.984375 17.53125 -7.445312 17.5 -6.96875 C 17.476562 -6.488281 17.46875 -5.957031 17.46875 -5.375 C 17.46875 -4.832031 17.492188 -4.320312 17.546875 -3.84375 C 17.597656 -3.363281 17.625 -2.832031 17.625 -2.25 C 17.625 -1.394531 17.410156 -0.816406 16.984375 -0.515625 C 16.554688 -0.222656 16.128906 -0.078125 15.703125 -0.078125 C 14.847656 -0.078125 14.085938 -0.117188 13.421875 -0.203125 C 12.753906 -0.285156 11.96875 -0.328125 11.0625 -0.328125 C 10.039062 -0.328125 9.113281 -0.269531 8.28125 -0.15625 C 7.457031 -0.0507812 6.539062 0 5.53125 0 C 4.675781 0 4.019531 -0.265625 3.5625 -0.796875 C 3.113281 -1.335938 2.890625 -2.003906 2.890625 -2.796875 C 2.890625 -3.390625 2.914062 -3.925781 2.96875 -4.40625 C 3.019531 -4.882812 3.070312 -5.390625 3.125 -5.921875 C 3.175781 -6.941406 3.210938 -7.863281 3.234375 -8.6875 C 3.265625 -9.519531 3.28125 -10.441406 3.28125 -11.453125 C 3.226562 -13.484375 3.160156 -15.300781 3.078125 -16.90625 C 3.003906 -18.507812 2.96875 -20.320312 2.96875 -22.34375 C 2.96875 -24.375 3.003906 -26.226562 3.078125 -27.90625 C 3.160156 -29.59375 3.203125 -31.453125 3.203125 -33.484375 C 3.203125 -34.816406 3.175781 -36.003906 3.125 -37.046875 C 3.070312 -38.085938 3.046875 -39.273438 3.046875 -40.609375 C 3.046875 -42.003906 3.070312 -43.273438 3.125 -44.421875 C 3.175781 -45.566406 3.203125 -46.832031 3.203125 -48.21875 C 3.203125 -49.070312 3.160156 -49.832031 3.078125 -50.5 C 3.003906 -51.175781 2.992188 -51.941406 3.046875 -52.796875 C 3.046875 -53.597656 3.296875 -54.476562 3.796875 -55.4375 C 4.304688 -56.394531 5.472656 -56.875 7.296875 -56.875 C 8.148438 -56.875 8.894531 -56.847656 9.53125 -56.796875 C 10.175781 -56.742188 10.925781 -56.71875 11.78125 -56.71875 C 13.800781 -56.664062 15.625 -56.691406 17.25 -56.796875 C 18.882812 -56.898438 20.71875 -56.953125 22.75 -56.953125 C 24.300781 -56.953125 25.984375 -56.804688 27.796875 -56.515625 C 29.609375 -56.222656 31.351562 -55.566406 33.03125 -54.546875 C 34.71875 -53.535156 36.175781 -51.988281 37.40625 -49.90625 C 37.726562 -49.269531 37.96875 -48.707031 38.125 -48.21875 C 38.238281 -47.90625 38.398438 -47.535156 38.609375 -47.109375 C 38.828125 -46.679688 39.039062 -46.117188 39.25 -45.421875 C 39.46875 -44.773438 39.628906 -43.851562 39.734375 -42.65625 C 39.835938 -41.457031 39.914062 -40.253906 39.96875 -39.046875 C 40.019531 -37.847656 40.046875 -36.929688 40.046875 -36.296875 C 40.046875 -35.921875 40.003906 -34.96875 39.921875 -33.4375 C 39.847656 -31.914062 39.515625 -30.164062 38.921875 -28.1875 C 38.335938 -26.21875 37.300781 -24.328125 35.8125 -22.515625 C 35.59375 -22.191406 35.363281 -21.910156 35.125 -21.671875 C 34.882812 -21.429688 34.628906 -21.175781 34.359375 -20.90625 C 34.148438 -20.695312 33.953125 -20.535156 33.765625 -20.421875 C 33.578125 -20.316406 33.378906 -20.128906 33.171875 -19.859375 C 33.109375 -19.804688 33.035156 -19.703125 32.953125 -19.546875 C 32.878906 -19.390625 32.84375 -19.203125 32.84375 -18.984375 C 32.84375 -18.609375 33.109375 -17.882812 33.640625 -16.8125 C 34.179688 -15.75 34.742188 -14.679688 35.328125 -13.609375 C 35.910156 -12.546875 36.285156 -11.800781 36.453125 -11.375 C 36.710938 -10.84375 36.9375 -10.347656 37.125 -9.890625 C 37.3125 -9.441406 37.539062 -8.921875 37.8125 -8.328125 C 38.238281 -7.421875 38.664062 -6.609375 39.09375 -5.890625 C 39.519531 -5.171875 39.921875 -4.351562 40.296875 -3.4375 C 40.347656 -3.28125 40.410156 -3.082031 40.484375 -2.84375 C 40.566406 -2.601562 40.609375 -2.296875 40.609375 -1.921875 Z M 24.75 -37.8125 C 24.75 -38.507812 24.628906 -39.3125 24.390625 -40.21875 C 24.148438 -41.125 23.722656 -41.910156 23.109375 -42.578125 C 22.492188 -43.242188 21.628906 -43.578125 20.515625 -43.578125 L 20.1875 -43.578125 C 19.539062 -43.472656 19.035156 -43.285156 18.671875 -43.015625 C 18.242188 -42.640625 17.945312 -42.25 17.78125 -41.84375 C 17.625 -41.445312 17.546875 -41.195312 17.546875 -41.09375 C 17.546875 -41.039062 17.519531 -40.664062 17.46875 -39.96875 C 17.414062 -39.28125 17.375 -38.492188 17.34375 -37.609375 C 17.3125 -36.734375 17.28125 -35.945312 17.25 -35.25 C 17.226562 -34.550781 17.21875 -34.175781 17.21875 -34.125 C 17.21875 -33.113281 17.507812 -32.207031 18.09375 -31.40625 C 18.6875 -30.601562 19.570312 -30.203125 20.75 -30.203125 C 21.332031 -30.203125 21.820312 -30.28125 22.21875 -30.4375 C 22.625 -30.601562 22.9375 -30.789062 23.15625 -31 C 23.84375 -31.59375 24.28125 -32.488281 24.46875 -33.6875 C 24.65625 -34.882812 24.75 -36.257812 24.75 -37.8125 Z M 24.75 -37.8125 "/></g></g></g></g></g><g clip-path="url(#3223d2b55b)"><path fill="#ffbd59" d="M 169.214844 211.492188 C 169.007812 211.785156 168.742188 212.046875 168.421875 212.253906 C 168.144531 212.4375 167.832031 212.566406 167.507812 212.644531 C 167.28125 212.695312 167.046875 212.722656 166.8125 212.722656 L 148.722656 212.8125 L 126.753906 231.652344 C 126.6875 231.710938 126.617188 231.765625 126.546875 231.820312 C 126.292969 232.003906 126.019531 232.140625 125.730469 232.234375 C 124.921875 232.496094 124.003906 232.398438 123.242188 231.894531 C 122.941406 231.695312 122.691406 231.449219 122.492188 231.171875 C 121.996094 230.484375 121.828125 229.617188 122.03125 228.792969 C 122.046875 228.71875 122.070312 228.648438 122.09375 228.574219 L 131.367188 199.242188 L 125.894531 178.085938 C 125.496094 176.546875 126.429688 174.957031 127.96875 174.558594 C 129.03125 174.285156 130.15625 174.636719 130.875 175.457031 L 140.910156 186.523438 L 155.105469 166.390625 C 155.597656 165.664062 156.394531 165.199219 157.273438 165.128906 C 157.636719 165.101562 157.988281 165.140625 158.316406 165.238281 C 158.875 165.402344 159.347656 165.722656 159.703125 166.140625 C 160.085938 166.589844 160.335938 167.15625 160.386719 167.785156 L 162.117188 189.441406 L 165.257812 183.703125 C 165.527344 183.195312 165.949219 182.765625 166.5 182.488281 L 172.378906 179.5 C 173.644531 178.855469 175.199219 179.234375 176.03125 180.386719 L 181.753906 188.304688 C 182.394531 189.128906 182.542969 190.253906 182.125 191.21875 C 181.5 192.679688 179.785156 193.363281 178.324219 192.738281 L 175.460938 191.507812 L 169.613281 210.671875 C 169.519531 210.972656 169.386719 211.246094 169.214844 211.492188 Z M 169.214844 211.492188 " fill-opacity="1" fill-rule="evenodd"/></g><path fill="#000000" d="M 134.378906 198.769531 L 160.003906 198.769531 C 160.3125 198.769531 160.5625 199.019531 160.5625 199.328125 C 160.5625 199.507812 160.472656 199.671875 160.335938 199.773438 L 125.203125 229.90625 C 124.96875 230.105469 124.617188 230.078125 124.417969 229.84375 C 124.289062 229.691406 124.253906 229.492188 124.308594 229.316406 L 133.847656 199.160156 C 133.921875 198.921875 134.140625 198.769531 134.378906 198.769531 Z M 158.503906 199.882812 L 134.785156 199.882812 L 125.960938 227.789062 Z M 158.503906 199.882812 " fill-opacity="1" fill-rule="nonzero"/><path fill="#000000" d="M 147.472656 190.554688 L 140.667969 198.769531 L 158.34375 198.769531 Z M 139.054688 198.972656 L 146.957031 189.433594 C 147.144531 189.207031 147.480469 189.164062 147.71875 189.34375 L 160.316406 198.863281 C 160.464844 198.964844 160.5625 199.132812 160.5625 199.328125 C 160.5625 199.632812 160.3125 199.882812 160.003906 199.882812 L 139.484375 199.882812 C 139.359375 199.882812 139.234375 199.839844 139.128906 199.753906 C 138.894531 199.558594 138.859375 199.207031 139.054688 198.972656 Z M 139.054688 198.972656 " fill-opacity="1" fill-rule="nonzero"/><path fill="#000000" d="M 133.828125 199.421875 L 128.15625 177.5 C 128.078125 177.203125 128.257812 176.898438 128.554688 176.820312 C 128.769531 176.765625 128.988281 176.84375 129.121094 177.003906 L 144.253906 193.691406 C 144.441406 193.898438 144.445312 194.207031 144.269531 194.417969 L 144.273438 194.417969 L 139.914062 199.679688 C 139.804688 199.8125 139.644531 199.882812 139.484375 199.882812 L 134.378906 199.882812 C 134.101562 199.882812 133.875 199.683594 133.828125 199.421875 Z M 129.796875 179.398438 L 134.808594 198.769531 L 139.222656 198.769531 L 143.109375 194.078125 Z M 129.796875 179.398438 " fill-opacity="1" fill-rule="nonzero"/><path fill="#000000" d="M 159.351562 198.136719 L 157.070312 169.59375 L 141.902344 191.097656 L 143.824219 193.214844 L 146.957031 189.433594 C 147.148438 189.199219 147.496094 189.164062 147.730469 189.355469 Z M 158.054688 167.972656 L 160.5625 199.28125 C 160.570312 199.414062 160.535156 199.546875 160.449219 199.660156 C 160.265625 199.90625 159.914062 199.957031 159.671875 199.769531 L 147.472656 190.554688 L 144.273438 194.417969 L 144.269531 194.417969 C 144.253906 194.4375 144.234375 194.457031 144.214844 194.476562 C 143.988281 194.679688 143.636719 194.664062 143.433594 194.4375 L 140.808594 191.542969 C 140.613281 191.355469 140.578125 191.050781 140.738281 190.820312 L 157.03125 167.710938 C 157.125 167.570312 157.277344 167.472656 157.457031 167.460938 C 157.761719 167.433594 158.03125 167.664062 158.054688 167.972656 Z M 158.054688 167.972656 " fill-opacity="1" fill-rule="nonzero"/><path fill="#000000" d="M 125.304688 229.789062 C 125.132812 230.046875 124.789062 230.117188 124.53125 229.945312 C 124.277344 229.777344 124.207031 229.429688 124.375 229.175781 L 144.320312 199.019531 C 144.488281 198.761719 144.835938 198.691406 145.089844 198.863281 C 145.347656 199.03125 145.417969 199.378906 145.246094 199.632812 Z M 125.304688 229.789062 " fill-opacity="1" fill-rule="nonzero"/><path fill="#000000" d="M 156.964844 167.875 C 157.039062 167.578125 157.34375 167.398438 157.640625 167.476562 C 157.9375 167.554688 158.117188 167.855469 158.039062 168.152344 L 151.597656 192.703125 C 151.519531 193 151.214844 193.179688 150.917969 193.101562 C 150.621094 193.027344 150.445312 192.722656 150.519531 192.425781 Z M 156.964844 167.875 " fill-opacity="1" fill-rule="nonzero"/><path fill="#000000" d="M 160.484375 199.042969 L 167.3125 209.523438 C 167.480469 209.78125 167.40625 210.125 167.148438 210.292969 C 167.050781 210.359375 166.9375 210.386719 166.828125 210.382812 L 147.648438 210.480469 C 147.34375 210.480469 147.09375 210.234375 147.089844 209.925781 C 147.089844 209.757812 147.167969 209.605469 147.285156 209.503906 L 159.644531 198.902344 C 159.878906 198.703125 160.230469 198.730469 160.429688 198.964844 C 160.449219 198.988281 160.46875 199.015625 160.484375 199.042969 Z M 165.824219 209.277344 L 159.886719 200.160156 L 149.15625 209.363281 Z M 165.824219 209.277344 " fill-opacity="1" fill-rule="nonzero"/><path fill="#000000" d="M 177.839844 188.769531 L 173.515625 182.792969 L 169.121094 185.023438 Z M 174.136719 181.757812 L 179.890625 189.714844 C 180.023438 189.871094 180.066406 190.097656 179.980469 190.296875 C 179.855469 190.578125 179.53125 190.710938 179.246094 190.589844 L 167.589844 185.578125 C 167.472656 185.527344 167.375 185.4375 167.3125 185.316406 C 167.175781 185.042969 167.285156 184.710938 167.558594 184.570312 L 173.4375 181.585938 C 173.675781 181.464844 173.976562 181.53125 174.136719 181.757812 Z M 174.136719 181.757812 " fill-opacity="1" fill-rule="nonzero"/><path fill="#000000" d="M 159.527344 199.042969 L 167.320312 184.800781 C 167.460938 184.546875 167.769531 184.445312 168.027344 184.558594 L 168.03125 184.554688 L 173.859375 187.0625 C 174.136719 187.179688 174.265625 187.496094 174.15625 187.777344 L 167.378906 209.988281 C 167.289062 210.28125 166.976562 210.449219 166.683594 210.359375 C 166.554688 210.320312 166.449219 210.238281 166.378906 210.128906 L 159.539062 199.628906 C 159.421875 199.445312 159.425781 199.21875 159.527344 199.042969 Z M 168.054688 185.777344 L 160.652344 199.300781 L 166.664062 208.527344 L 172.960938 187.886719 Z M 168.054688 185.777344 " fill-opacity="1" fill-rule="nonzero"/><g transform="matrix(1, 0, 0, 1, 253, 96)"><g clip-path="url(#70c88a017f)"><g fill="#ffffff" fill-opacity="1"><g transform="translate(0.554656, 157.366944)"><g><path d="M 60.421875 -88.671875 C 60.421875 -88.046875 60.210938 -86.972656 59.796875 -85.453125 C 59.378906 -83.929688 57.96875 -83.171875 55.5625 -83.171875 C 54.820312 -83.171875 54.140625 -83.195312 53.515625 -83.25 C 52.890625 -83.300781 52.15625 -83.328125 51.3125 -83.328125 C 49.007812 -83.328125 47.441406 -82.722656 46.609375 -81.515625 C 45.773438 -80.316406 45.359375 -78.148438 45.359375 -75.015625 C 45.359375 -72.398438 45.4375 -70.046875 45.59375 -67.953125 C 45.75 -65.859375 45.828125 -63.453125 45.828125 -60.734375 C 45.828125 -57.492188 45.773438 -54.617188 45.671875 -52.109375 C 45.566406 -49.597656 45.515625 -46.71875 45.515625 -43.46875 C 45.515625 -40.539062 45.566406 -37.925781 45.671875 -35.625 C 45.773438 -33.320312 45.828125 -30.707031 45.828125 -27.78125 C 45.828125 -26.101562 45.800781 -24.453125 45.75 -22.828125 C 45.695312 -21.210938 45.671875 -19.566406 45.671875 -17.890625 C 45.671875 -16.523438 45.695312 -15.265625 45.75 -14.109375 C 45.800781 -12.960938 45.878906 -11.660156 45.984375 -10.203125 C 46.085938 -9.367188 46.191406 -8.609375 46.296875 -7.921875 C 46.398438 -7.242188 46.453125 -6.488281 46.453125 -5.65625 C 46.453125 -3.976562 46.054688 -2.769531 45.265625 -2.03125 C 44.484375 -1.300781 43.625 -0.832031 42.6875 -0.625 C 41.75 -0.414062 41.015625 -0.3125 40.484375 -0.3125 C 39.546875 -0.3125 38.707031 -0.335938 37.96875 -0.390625 C 37.238281 -0.441406 36.40625 -0.519531 35.46875 -0.625 C 34.101562 -0.726562 32.925781 -0.78125 31.9375 -0.78125 C 30.945312 -0.78125 29.769531 -0.78125 28.40625 -0.78125 C 27.363281 -0.78125 26.367188 -0.726562 25.421875 -0.625 C 24.484375 -0.519531 23.4375 -0.46875 22.28125 -0.46875 C 20.613281 -0.46875 19.28125 -0.882812 18.28125 -1.71875 C 17.289062 -2.5625 16.796875 -4.289062 16.796875 -6.90625 C 16.796875 -9.519531 16.925781 -11.820312 17.1875 -13.8125 C 17.445312 -15.800781 17.578125 -18.101562 17.578125 -20.71875 C 17.578125 -23.125 17.5 -25.316406 17.34375 -27.296875 C 17.1875 -29.285156 17.109375 -31.488281 17.109375 -33.90625 C 17.109375 -36.726562 17.238281 -39.289062 17.5 -41.59375 C 17.757812 -43.894531 17.890625 -46.457031 17.890625 -49.28125 C 17.890625 -51.375 17.8125 -53.226562 17.65625 -54.84375 C 17.5 -56.46875 17.367188 -58.273438 17.265625 -60.265625 C 17.160156 -63.503906 17.265625 -66.507812 17.578125 -69.28125 C 17.890625 -72.0625 17.992188 -74.519531 17.890625 -76.65625 C 17.785156 -78.800781 17.050781 -80.453125 15.6875 -81.609375 C 15.375 -82.023438 15.085938 -82.257812 14.828125 -82.3125 C 14.566406 -82.363281 14.382812 -82.441406 14.28125 -82.546875 C 13.757812 -82.859375 13.101562 -83.039062 12.3125 -83.09375 C 11.53125 -83.144531 10.878906 -83.171875 10.359375 -83.171875 C 9.734375 -83.171875 9.15625 -83.144531 8.625 -83.09375 C 8.101562 -83.039062 7.582031 -83.015625 7.0625 -83.015625 C 4.96875 -83.015625 3.550781 -83.5625 2.8125 -84.65625 C 2.082031 -85.757812 1.71875 -86.785156 1.71875 -87.734375 C 1.71875 -89.710938 1.769531 -91.488281 1.875 -93.0625 C 1.988281 -94.632812 2.046875 -96.414062 2.046875 -98.40625 C 2.046875 -99.757812 1.988281 -100.957031 1.875 -102 C 1.769531 -103.050781 1.71875 -104.257812 1.71875 -105.625 C 1.71875 -107.601562 2.132812 -108.984375 2.96875 -109.765625 C 3.8125 -110.554688 5.226562 -110.953125 7.21875 -110.953125 C 9 -110.953125 10.617188 -110.898438 12.078125 -110.796875 C 13.546875 -110.691406 15.171875 -110.640625 16.953125 -110.640625 C 19.671875 -110.640625 22.363281 -110.71875 25.03125 -110.875 C 27.695312 -111.03125 30.335938 -111.109375 32.953125 -111.109375 L 34.6875 -111.109375 C 36.882812 -111.109375 38.867188 -111.054688 40.640625 -110.953125 C 42.421875 -110.847656 44.460938 -110.796875 46.765625 -110.796875 C 48.234375 -110.796875 49.515625 -110.847656 50.609375 -110.953125 C 51.710938 -111.054688 52.941406 -111.109375 54.296875 -111.109375 C 57.335938 -111.109375 59.117188 -110.191406 59.640625 -108.359375 C 60.160156 -106.535156 60.421875 -104.578125 60.421875 -102.484375 C 60.421875 -100.910156 60.394531 -99.519531 60.34375 -98.3125 C 60.289062 -97.113281 60.265625 -95.78125 60.265625 -94.3125 C 60.265625 -93.269531 60.289062 -92.328125 60.34375 -91.484375 C 60.394531 -90.648438 60.421875 -89.710938 60.421875 -88.671875 Z M 60.421875 -88.671875 "/></g></g></g></g></g></svg>